<svg xmlns="http://www.w3.org/2000/svg" width="57" height="90" viewBox="0 0 57 90">
    <g id="Icon_Kleine_Auflagen" data-name="Icon Kleine Auflagen" transform="translate(-368 -1152)">
        <g id="Gruppe_577" data-name="Gruppe 577" transform="translate(-158.565 -560)">
            <g id="Gruppe_569" data-name="Gruppe 569" transform="translate(527 1712)">
                <path id="Vereinigungsmenge_4" data-name="Vereinigungsmenge 4"
                      d="M0,78.4V12.95l2.734-1.4L0,10.15V5A5.005,5.005,0,0,1,5,0H45a5.006,5.006,0,0,1,5,5v5.15l-2.734,1.4L50,12.95V78.4h0C50,81.492,38.807,84,25,84S0,81.492,0,78.4Zm50,0Z"
                      transform="translate(-0.435)" fill="#127f7d" opacity="0.3"/>
                <line id="Linie_47" data-name="Linie 47" x2="43" transform="translate(6.565 21)" fill="none"
                      stroke="#2f2f2f" stroke-width="1" stroke-dasharray="4"/>
                <g id="Vereinigungsmenge_3" data-name="Vereinigungsmenge 3" transform="translate(2.565 3)" fill="none">
                    <path
                        d="M0,79.334H0V13.1l2.789-1.417L0,10.271V5A5.005,5.005,0,0,1,5,0H46a5.006,5.006,0,0,1,5,5v5.27l-2.789,1.417L51,13.1V79.333h0C51,82.464,39.581,85,25.5,85S0,82.464,0,79.334Z"
                        stroke="none"/>
                    <path
                        d="M 25.49970436096191 84.00051116943359 C 32.23938751220703 84.00051116943359 38.56545639038086 83.41957855224609 43.31259918212891 82.36474609375 C 48.79771423339844 81.14591979980469 49.99991607666016 79.76316070556641 50.00030517578125 79.33320617675781 L 50.00030517578125 13.71769142150879 L 47.75835037231445 12.57899284362793 L 46.00292587280273 11.68740463256836 L 47.75835037231445 10.79581642150879 L 50.00030517578125 9.65711784362793 L 50.00030517578125 5.000404834747314 C 50.00030517578125 2.794581174850464 48.20572662353516 1.000004768371582 45.99990463256836 1.000004768371582 L 4.999503612518311 1.000004768371582 C 2.794174194335938 1.000004768371582 0.9999977350234985 2.794581174850464 0.9999977350234985 5.000404834747314 L 0.9999977350234985 9.65711784362793 L 3.241950750350952 10.79581642150879 L 4.997374057769775 11.68740463256836 L 3.241950750350952 12.57899284362793 L 0.9999978542327881 13.71769142150879 L 1.000009536743164 79.33320617675781 C 1.000397682189941 79.76316833496094 2.202515363693237 81.14594268798828 7.687268257141113 82.36474609375 C 12.43417453765869 83.41957855224609 18.76008033752441 84.00051116943359 25.49970436096191 84.00051116943359 M 25.49970436096191 85.00051116943359 C 11.41822147369385 85.00051116943359 0.002797739347442985 82.46378326416016 9.504071385890711e-06 79.33409881591797 L -2.26063457375858e-06 79.33409881591797 L -2.26063457375858e-06 13.10400485992432 L 2.789103507995605 11.68740463256836 L -2.26063457375858e-06 10.2708044052124 L -2.26063457375858e-06 5.000404834747314 C -2.26063457375858e-06 2.242804765701294 2.2427978515625 4.711196197604295e-06 4.999503612518311 4.711196197604295e-06 L 45.99990463256836 4.711196197604295e-06 C 48.75750350952148 4.711196197604295e-06 51.00030517578125 2.242804765701294 51.00030517578125 5.000404834747314 L 51.00030517578125 10.2708044052124 L 48.21119689941406 11.68740463256836 L 51.00030517578125 13.10400485992432 L 51.00030517578125 79.33320617675781 L 51.00030517578125 79.33409881591797 L 51.00029373168945 79.33409881591797 C 50.99751663208008 82.46378326416016 39.58118438720703 85.00051116943359 25.49970436096191 85.00051116943359 Z M 51.00030517578125 79.33500671386719 L 51.00030517578125 79.33409881591797 L 51.00030517578125 79.33500671386719 Z"
                        stroke="none" fill="#2f2f2f"/>
                </g>
            </g>
        </g>
        <text id="_500" data-name="500" transform="translate(378 1208)" fill="#2f2f2f" font-size="20"
              font-family="Ubuntu-Light, Ubuntu" font-weight="300">
            <tspan x="0" y="0">500</tspan>
        </text>
    </g>
</svg>
