<svg xmlns="http://www.w3.org/2000/svg" width="64.469" height="52.34" viewBox="0 0 64.469 52.34">
    <g id="Icon_Nachhaltigkeit" data-name="Icon Nachhaltigkeit" transform="translate(-534.535 -836.245)">
        <path id="Pfad_25" data-name="Pfad 25"
              d="M464.188,417.972c-.3.333-10.944-1.227-18.885-7.049-7.2-5.284-12.231-13.155-11.159-14.525s10.763,1,17.314,5.452c7.527,5.121,13.03,15.791,12.73,16.122"
              transform="translate(100.535 441.412)" fill="#127f7d" opacity="0.5"/>
        <path id="Pfad_26" data-name="Pfad 26"
              d="M466.958,447.256s-2.667-28.836,0-33.553,5.975-8.686,15.269-13.393c6.633-3.36,14.473-4.562,15.136-3.782s-7.236,10.886-14.412,15.781c-6.24,4.259-16.526,5.064-16.526,5.064s-10.882-1.225-18.777-7.024c-7.161-5.264-12.162-13.109-11.1-14.472s10.7.992,17.214,5.431c7.484,5.1,12.18,15.359,12.18,15.359"
              transform="translate(101.133 441.283)" fill="none" stroke="#000" stroke-width="1"/>
    </g>
</svg>
